<svg xmlns="http://www.w3.org/2000/svg" width="600" height="600" viewBox="0 0 600 600">
  <defs>
    <filter id="blur-filter" x="-50%" y="-50%" width="200%" height="200%">
      <feGaussianBlur in="SourceGraphic" stdDeviation="2" />
    </filter>
  </defs>
  
  <!-- Base Circle -->
  <circle cx="300" cy="300" r="280" fill="none" stroke="#F8B400" stroke-width="2" opacity="0.3" />
  
  <!-- Mandala Pattern -->
  <g fill="none" stroke="#F8B400" stroke-width="1.5" opacity="0.4">
    <!-- Inner Petals -->
    <g>
      <path d="M300,200 Q350,250 300,300 Q250,250 300,200" />
      <path d="M400,300 Q350,350 300,300 Q350,250 400,300" />
      <path d="M300,400 Q250,350 300,300 Q350,350 300,400" />
      <path d="M200,300 Q250,250 300,300 Q250,350 200,300" />
    </g>
    
    <!-- Rotated copies for complexity -->
    <g transform="rotate(45, 300, 300)">
      <path d="M300,200 Q350,250 300,300 Q250,250 300,200" />
      <path d="M400,300 Q350,350 300,300 Q350,250 400,300" />
      <path d="M300,400 Q250,350 300,300 Q350,350 300,400" />
      <path d="M200,300 Q250,250 300,300 Q250,350 200,300" />
    </g>
    
    <!-- Outer Flower Pattern -->
    <g>
      <path d="M300,150 Q375,225 300,300 Q225,225 300,150" />
      <path d="M450,300 Q375,375 300,300 Q375,225 450,300" />
      <path d="M300,450 Q225,375 300,300 Q375,375 300,450" />
      <path d="M150,300 Q225,225 300,300 Q225,375 150,300" />
    </g>
    
    <g transform="rotate(45, 300, 300)">
      <path d="M300,150 Q375,225 300,300 Q225,225 300,150" />
      <path d="M450,300 Q375,375 300,300 Q375,225 450,300" />
      <path d="M300,450 Q225,375 300,300 Q375,375 300,450" />
      <path d="M150,300 Q225,225 300,300 Q225,375 150,300" />
    </g>
    
    <!-- Large Decorative Elements -->
    <g>
      <path d="M300,100 Q400,200 300,300 Q200,200 300,100" />
      <path d="M500,300 Q400,400 300,300 Q400,200 500,300" />
      <path d="M300,500 Q200,400 300,300 Q400,400 300,500" />
      <path d="M100,300 Q200,200 300,300 Q200,400 100,300" />
    </g>
    
    <g transform="rotate(22.5, 300, 300)">
      <path d="M300,100 Q400,200 300,300 Q200,200 300,100" />
      <path d="M500,300 Q400,400 300,300 Q400,200 500,300" />
      <path d="M300,500 Q200,400 300,300 Q400,400 300,500" />
      <path d="M100,300 Q200,200 300,300 Q200,400 100,300" />
    </g>
    
    <g transform="rotate(45, 300, 300)">
      <path d="M300,100 Q400,200 300,300 Q200,200 300,100" />
      <path d="M500,300 Q400,400 300,300 Q400,200 500,300" />
      <path d="M300,500 Q200,400 300,300 Q400,400 300,500" />
      <path d="M100,300 Q200,200 300,300 Q200,400 100,300" />
    </g>
    
    <g transform="rotate(67.5, 300, 300)">
      <path d="M300,100 Q400,200 300,300 Q200,200 300,100" />
      <path d="M500,300 Q400,400 300,300 Q400,200 500,300" />
      <path d="M300,500 Q200,400 300,300 Q400,400 300,500" />
      <path d="M100,300 Q200,200 300,300 Q200,400 100,300" />
    </g>
  </g>
  
  <!-- Decorative Circles -->
  <circle cx="300" cy="300" r="50" fill="none" stroke="#F8B400" stroke-width="1.5" opacity="0.5" />
  <circle cx="300" cy="300" r="100" fill="none" stroke="#F8B400" stroke-width="1.5" opacity="0.4" />
  <circle cx="300" cy="300" r="150" fill="none" stroke="#F8B400" stroke-width="1.5" opacity="0.3" />
  <circle cx="300" cy="300" r="200" fill="none" stroke="#F8B400" stroke-width="1.5" opacity="0.2" />
  <circle cx="300" cy="300" r="250" fill="none" stroke="#F8B400" stroke-width="1.5" opacity="0.1" />
  
  <!-- Small decorative elements -->
  <g fill="#F8B400" opacity="0.3">
    <circle cx="300" cy="50" r="3" />
    <circle cx="300" cy="550" r="3" />
    <circle cx="50" cy="300" r="3" />
    <circle cx="550" cy="300" r="3" />
    
    <circle cx="155" cy="155" r="3" />
    <circle cx="445" cy="155" r="3" />
    <circle cx="155" cy="445" r="3" />
    <circle cx="445" cy="445" r="3" />
  </g>
</svg>