<svg width="588" height="194" viewBox="0 0 588 194" fill="none" xmlns="http://www.w3.org/2000/svg">
<path d="M97.0008 20L107.82 38.8607C111.502 45.2797 108.817 53.4744 102.051 56.4703V56.4703C98.8353 57.894 95.1681 57.8941 91.9525 56.4705V56.4705C85.1854 53.4745 82.5001 45.2791 86.1825 38.8595L97.0008 20Z" fill="#E09E3E"/>
<path d="M97.0008 174L107.82 155.139C111.502 148.72 108.817 140.526 102.051 137.53V137.53C98.8353 136.106 95.1681 136.106 91.9525 137.53V137.53C85.1854 140.525 82.5001 148.721 86.1825 155.14L97.0008 174Z" fill="#E09E3E"/>
<path d="M174 96.9998L155.139 107.819C148.72 111.501 140.526 108.816 137.53 102.05V102.05C136.106 98.8343 136.106 95.1671 137.53 91.9516V91.9516C140.525 85.1844 148.721 82.4992 155.14 86.1815L174 96.9998Z" fill="#E09E3E"/>
<path d="M20 96.9998L38.8607 107.819C45.2797 111.501 53.4744 108.816 56.4703 102.05V102.05C57.894 98.8343 57.8941 95.1671 56.4705 91.9516V91.9516C53.4745 85.1844 45.2791 82.4992 38.8595 86.1815L20 96.9998Z" fill="#E09E3E"/>
<path d="M151.861 151.029L130.832 145.504C123.675 143.623 119.72 135.96 122.333 129.037V129.037C123.575 125.747 126.148 123.134 129.419 121.842V121.842C136.302 119.123 144.025 122.96 146.015 130.088L151.861 151.029Z" fill="#E09E3E"/>
<path d="M42.1386 42.9708L47.9853 63.9134C49.9751 71.0409 57.6975 74.8782 64.5799 72.1594V72.1594C67.8506 70.8673 70.4238 68.2545 71.6658 64.9646V64.9646C74.2796 58.0408 70.3246 50.377 63.1669 48.4962L42.1386 42.9708Z" fill="#E09E3E"/>
<path d="M42.9707 151.861L48.4965 130.831C50.3771 123.674 58.0399 119.719 64.9632 122.333V122.333C68.2532 123.574 70.866 126.148 72.1582 129.418V129.418C74.8775 136.301 71.0401 144.025 63.912 146.015L42.9707 151.861Z" fill="#E09E3E"/>
<path d="M151.027 42.1389L130.085 47.9855C122.957 49.9753 119.12 57.6977 121.839 64.5802V64.5802C123.131 67.8508 125.744 70.424 129.033 71.666V71.666C135.957 74.2798 143.621 70.3248 145.502 63.1671L151.027 42.1389Z" fill="#E09E3E"/>
<path fill-rule="evenodd" clip-rule="evenodd" d="M102.218 73.9673C102.218 73.9673 95.7794 69.8699 93.6422 75.5516C92.1461 86.0682 106.359 99.9992 106.973 103.496C107.134 102.294 107.053 98.2783 107.053 98.2783C107.053 98.2783 105.637 98.3603 104.756 98.2783C103.5 98.0325 104.008 95.5467 104.676 95.4648C105.344 95.3829 106.893 95.5467 106.893 95.5467C106.893 95.5467 106.973 85.7131 106.973 84.5658C105.637 83.3639 105.263 81.6977 106.759 80.8509C108.977 80.8509 115.709 80.9328 115.709 80.9328C115.709 80.9328 119.129 81.6157 115.95 84.5658C115.709 86.6964 115.709 109.915 116.03 110.243C118.087 111.772 117.953 113.958 116.324 114.258C114.56 114.094 107.508 114.094 107.508 114.094C107.508 114.094 104.542 123.791 97.0618 124.01C88.9937 124.092 86.6962 117.946 88.406 112.428C89.902 110.325 90.7035 109.396 92.8407 109.259C94.978 109.095 97.6495 110.926 96.9015 114.722C96.3138 115.87 95.5657 116.607 94.3902 116.771C93.2148 116.935 92.1729 116.99 92.1729 116.99C92.1729 116.99 91.131 118.656 93.0545 119.803C94.978 120.923 98.3174 120.322 99.6265 117.918C100.962 115.487 101.497 112.838 100.214 109.969C99.1723 105.353 90.0089 96.9399 88.2991 83.7737C87.7114 83.6917 86.8031 83.7737 86.8031 83.7737V95.0551L89.1807 95.219C89.1807 95.219 91.1042 96.5028 89.3945 98.1691C88.2991 98.333 86.9633 98.1691 86.9633 98.1691L86.7496 109.833C86.7496 109.833 90.3829 113.002 86.7496 113.766C85.2001 114.231 79.0556 113.848 78.0137 113.684C76.6779 113.848 75.3421 111.882 77.8534 109.888C78.0671 103.386 77.8534 84.1561 77.8534 84.1561C77.8534 84.1561 75.9299 82.1893 77.2656 80.3592C79.1892 80.5777 86.4558 80.3592 88.2457 80.1953C87.6579 76.9447 90.8371 64.4614 103.126 71.0991C109.645 70.4982 104.008 80.5777 102.245 73.9946L102.218 73.9673Z" fill="#005A29"/>
<path fill-rule="evenodd" clip-rule="evenodd" d="M210.257 92.0611C219.221 92.0611 226.47 98.967 226.47 107.46C226.47 115.953 219.178 122.859 210.257 122.859C201.335 122.859 194 115.953 194 107.46C194 98.967 201.292 92.0611 210.257 92.0611ZM257.568 46.6369C266.533 46.6369 273.825 53.5427 273.825 62.0356C273.825 70.5286 266.533 77.4344 257.568 77.4344C248.603 77.4344 241.354 70.5286 241.354 62.0356C241.354 53.5427 248.646 46.6369 257.568 46.6369ZM437.221 79.2574L439.92 82.3591C444.862 88.0393 449.78 94.2156 450.755 101.681C452.434 114.535 445.287 124.405 440.5 128H437.221V128.092H464.079V95.8357H481.408V127.963H515.594V96.0073H532.622V155L567.624 129.564V67.955H534.424L515.637 79.5791V66.0676H481.45L464.422 78.807V66.2392L437.264 66.3679L437.221 66.325V79.2574ZM275.884 81.4235V127.663H308.783V98.7954L275.884 81.4235ZM273.527 20L276.055 76.0189L310.413 94.935H327.27V128.306H349.766C342.302 120.285 341.254 109.661 342.385 101.398C343.169 95.6763 346.156 90.7043 349.765 86.1706C349.551 75.1712 349.36 66.711 349.36 66.711C334.819 66.4108 308.955 66.711 308.955 66.711V37.2432L273.57 20H273.527ZM256.925 42.7765L256.88 42.7739L256.968 42.7765H256.925ZM256.88 42.7739C255.667 42.7045 230.09 41.2578 223.725 42.3046C223.486 42.3345 223.201 42.3661 222.875 42.4023L222.875 42.4023C218.056 42.9369 204.28 44.4655 197.088 56.1163C196.953 56.6853 196.669 57.3687 196.335 58.1744C194.652 62.2283 191.682 69.3803 199.876 80.6514C203.308 83.7398 208.241 86.3992 215.919 88.7154C216.222 88.8395 216.59 88.9757 217.011 89.1311C221.821 90.909 233.394 95.1868 231.146 112.307C230.159 117.282 228.358 123.631 212.187 126.59C205.667 126.59 235.392 128.435 246.201 126.719C246.555 126.607 247.217 126.528 248.11 126.421C253.392 125.787 266.778 124.181 272.538 109.176C275.798 97.3799 271.895 90.5598 267.133 86.3563C264.688 84.8979 261.686 83.1821 258.34 81.7667C256.53 81.0131 254.853 80.4359 253.282 79.8951C247.967 78.0654 243.859 76.6511 239.853 70.2283C231.507 56.7887 243.362 42.4096 256.88 42.7739Z" fill="#005A29"/>
<path d="M444.767 102.177C446.383 114.713 439.247 123.916 434.473 127.5H410.048C425.413 113.065 419.93 97.4276 415.267 91.4131L398.582 74.2583C397.78 73.4343 396.451 73.4539 395.674 74.3013L379.986 91.4131C367.628 104.169 377.76 120.786 384.37 127.5H358.484C349.742 119.582 348.259 109.719 349.281 101.863C350.22 94.6381 354.87 88.6539 359.697 83.1962L390.842 47.9828C395.685 45.2973 401.35 46.8639 403.576 47.9828L433.92 82.8591C438.862 88.5393 443.804 94.7096 444.767 102.177Z" fill="#005A29"/>
<circle cx="397" cy="102" r="9" fill="#005A29"/>
<path d="M215.332 153.739H213.043V161.696C212.218 161.206 211.028 160.786 209.474 160.437C208.018 160.101 206.759 159.933 205.695 159.933C203.133 159.933 200.985 160.388 199.249 161.297C198.269 161.815 197.779 162.494 197.779 163.334C197.779 164.454 198.367 165.014 199.543 165.014C200.257 165.014 201.188 164.804 202.335 164.384C203.077 164.118 204.029 163.782 205.191 163.376C205.681 163.208 206.549 163.124 207.794 163.124C210.216 163.124 212.022 163.873 213.211 165.371C213.785 166.084 214.072 166.924 214.072 167.89C214.072 170.116 212.673 171.865 209.873 173.139C208.711 173.671 207.605 173.972 206.556 174.042C207.563 175.05 208.522 175.554 209.432 175.554C209.726 175.554 210.041 175.512 210.377 175.428L212.498 178.892C212.064 179.27 211.175 179.459 209.831 179.459C208.739 179.459 207.815 179.088 207.06 178.346C206.654 177.94 206.08 177.093 205.338 175.806C204.708 174.7 204.183 174.14 203.763 174.126C201.174 174.056 199.179 173.587 197.779 172.719C196.897 172.173 196.457 171.424 196.457 170.473C196.457 169.297 197.156 168.709 198.556 168.709C199.074 168.709 200.152 169.115 201.79 169.927C203.441 170.725 204.799 171.124 205.863 171.124C207.99 171.124 209.985 170.62 211.847 169.612C212.757 169.122 213.211 168.52 213.211 167.806C213.211 166.742 212.372 166.21 210.692 166.21C210.174 166.21 208.501 166.588 205.674 167.344C204.008 167.792 202.986 168.016 202.608 168.016C200.383 168.016 198.549 166.966 197.107 164.867C196.408 163.859 196.058 162.774 196.058 161.612C196.044 159.247 197.66 157.651 200.908 156.825C202.237 156.489 203.49 156.321 204.666 156.321C206.01 156.321 207.913 156.65 210.377 157.308V153.739H193.664V151.219H215.332V153.739ZM248.275 151.219L248.233 153.739H246.301V166.651C246.301 168.541 245.377 170.256 243.53 171.795C241.78 173.265 239.939 174 238.008 174C236.132 174 234.138 173.181 232.024 171.543C230.218 173.181 228.042 174 225.494 174C224.22 174 222.933 173.594 221.631 172.782C220.427 172.04 219.426 171.11 218.628 169.99C217.747 168.744 217.306 167.4 217.306 165.958C217.306 164.041 217.824 162.186 218.859 160.395C219.853 158.659 221.176 157.245 222.828 156.153C223.751 157.175 224.808 158.295 225.998 159.513C224.864 160.493 223.723 161.528 222.576 162.62C220.994 164.132 220.203 165.847 220.203 167.764C220.203 170.718 221.26 172.194 223.374 172.194C225.081 172.194 226.572 171.669 227.846 170.62C229.077 169.612 229.945 168.275 230.449 166.609C230.827 165.364 231.051 164.433 231.121 163.817L235.152 165.875C235.068 166.938 234.704 168.037 234.061 169.171C233.767 169.689 233.557 170.011 233.431 170.137C233.837 170.767 234.76 171.082 236.202 171.082C238.694 171.082 240.569 170.228 241.829 168.52C242.403 167.736 242.69 166.91 242.69 166.042L242.648 153.739H214.828V151.219H248.275ZM270.111 153.739H264.379V157.875C265.037 158.029 265.513 158.218 265.807 158.442V160.919C264.141 160.346 262.405 160.059 260.6 160.059C259.298 160.059 258.038 160.276 256.82 160.709C255.197 161.283 254.378 162.102 254.364 163.166C254.336 164.286 255.924 164.846 259.13 164.846C259.2 164.846 259.655 164.825 260.495 164.783L261.754 164.72V166.651C259.851 166.707 258.661 166.756 258.185 166.798C254.84 167.092 253.167 168.058 253.167 169.696C253.167 170.606 253.748 171.319 254.91 171.837C255.819 172.243 256.799 172.446 257.849 172.446C262.398 172.446 266.08 170.431 268.893 166.399V171.711C266.486 173.237 263.637 174 260.348 174C256.75 174 253.643 173.167 251.025 171.501C249.752 170.69 249.115 169.759 249.115 168.709C249.115 167.687 249.563 166.798 250.458 166.042C251.004 165.581 251.907 165.049 253.167 164.447L251.781 163.649C250.955 163.173 250.542 162.536 250.542 161.738C250.542 160.003 251.851 158.757 254.469 158.001C256.456 157.427 258.689 157.14 261.167 157.14V153.739H247.708V151.219H270.111V153.739ZM291.947 153.739H286.215V157.875C286.873 158.029 287.349 158.218 287.643 158.442V160.919C285.977 160.346 284.241 160.059 282.436 160.059C281.134 160.059 279.874 160.276 278.656 160.709C277.033 161.283 276.214 162.102 276.2 163.166C276.172 164.286 277.76 164.846 280.966 164.846C281.036 164.846 281.491 164.825 282.331 164.783L283.59 164.72V166.651C281.687 166.707 280.497 166.756 280.021 166.798C276.676 167.092 275.003 168.058 275.003 169.696C275.003 170.606 275.584 171.319 276.746 171.837C277.655 172.243 278.635 172.446 279.685 172.446C284.234 172.446 287.916 170.431 290.729 166.399V171.711C288.321 173.237 285.473 174 282.184 174C278.586 174 275.479 173.167 272.861 171.501C271.588 170.69 270.951 169.759 270.951 168.709C270.951 167.687 271.399 166.798 272.294 166.042C272.84 165.581 273.743 165.049 275.003 164.447L273.617 163.649C272.791 163.173 272.378 162.536 272.378 161.738C272.378 160.003 273.687 158.757 276.305 158.001C278.292 157.427 280.525 157.14 283.002 157.14V153.739H269.544V151.219H291.947V153.739ZM310.255 153.739H299.631V170.641C299.631 171.117 299.785 171.578 300.093 172.026C300.415 172.516 300.807 172.761 301.269 172.761C303.355 172.761 304.397 170.606 304.397 166.294L308.618 168.709C307.008 172.278 304.516 174.056 301.143 174.042C299.183 174.028 297.658 173.132 296.566 171.354C296.09 170.585 295.852 169.815 295.852 169.045V153.739H291.464V151.219H295.852V144.165L299.631 146.789V151.219H310.255V153.739ZM344.584 153.739H327.64V160.059C329.166 158.393 330.58 157.322 331.881 156.846C332.609 156.58 333.428 156.447 334.338 156.447C337.753 156.447 340.308 158.127 342.001 161.486C342.743 162.956 343.114 164.405 343.114 165.833C343.114 168.436 342.043 170.788 339.902 172.887C339.188 173.587 338.656 174.07 338.306 174.336L334.863 172.278C335.731 171.368 336.717 170.249 337.823 168.919C339.069 167.421 339.699 165.532 339.713 163.25C339.727 161.892 339.419 160.758 338.789 159.849C338.075 158.785 337.067 158.267 335.766 158.295C334.562 158.323 333.274 158.778 331.902 159.66C330.671 160.444 329.649 161.381 328.837 162.473C327.955 163.649 327.514 164.783 327.514 165.875V174.21L323.588 172.11V153.739H321.278V151.219H323.588C323.588 147.104 322.517 143.591 320.375 140.679C319.088 138.93 317.898 137.698 316.806 136.984L321.047 136.942C323.399 138.23 325.268 141.008 326.653 145.277C327.311 147.307 327.64 149.288 327.64 151.219H344.584V153.739ZM366.777 153.739H362.053V159.513C362.053 159.639 362.613 160.262 363.732 161.381C364.586 162.417 365.013 163.901 365.013 165.833C365.013 169.038 363.592 171.41 360.751 172.95C359.407 173.678 357.944 174.042 356.363 174.042C354.067 174.042 351.702 173.027 349.266 170.998C346.719 168.87 345.445 166.56 345.445 164.069C345.445 162.921 345.858 161.731 346.684 160.5C347.425 159.394 348.321 158.477 349.371 157.749C350.631 156.881 352.15 156.447 353.927 156.447C354.907 156.447 356.356 156.706 358.273 157.224C358.357 157.224 358.399 157.168 358.399 157.056V153.739H343.996V151.219H366.777V153.739ZM361.927 163.04C361.927 161.066 361.059 159.744 359.323 159.072C358.679 158.82 358.126 158.694 357.665 158.694C355.929 158.694 354.06 159.471 352.059 161.024C349.721 162.844 348.552 165.161 348.552 167.974C348.552 169.29 349.308 170.368 350.82 171.208C351.506 171.585 352.199 171.774 352.898 171.774C354.634 171.774 356.538 170.935 358.609 169.255C360.821 167.463 361.927 165.392 361.927 163.04ZM389.936 153.739H372.362V167.197C372.362 168.093 372.551 169.017 372.929 169.969C373.699 171.914 374.972 172.887 376.75 172.887C379.144 172.887 380.963 171.886 382.209 169.885C383.175 168.345 383.658 166.896 383.658 165.539V157.182H387.92V175.071C387.584 174.875 386.954 174.574 386.03 174.168L383.616 173.097V171.417C381.964 172.621 380.55 173.384 379.375 173.706C378.661 173.902 377.814 174 376.834 174C373.727 174 371.298 172.635 369.548 169.906C368.75 168.66 368.352 167.302 368.352 165.833V153.739H365.811V151.219H389.936V153.739ZM411.1 153.739H408.811V161.696C407.985 161.206 406.795 160.786 405.242 160.437C403.786 160.101 402.526 159.933 401.462 159.933C398.901 159.933 396.752 160.388 395.017 161.297C394.037 161.815 393.547 162.494 393.547 163.334C393.547 164.454 394.135 165.014 395.311 165.014C396.024 165.014 396.955 164.804 398.103 164.384C398.845 164.118 399.797 163.782 400.958 163.376C401.448 163.208 402.316 163.124 403.562 163.124C405.984 163.124 407.789 163.873 408.979 165.371C409.553 166.084 409.84 166.924 409.84 167.89C409.84 170.116 408.44 171.865 405.641 173.139C404.479 173.671 403.373 173.972 402.323 174.042C403.331 175.05 404.29 175.554 405.2 175.554C405.494 175.554 405.809 175.512 406.145 175.428L408.265 178.892C407.831 179.27 406.942 179.459 405.599 179.459C404.507 179.459 403.583 179.088 402.827 178.346C402.421 177.94 401.847 177.093 401.105 175.806C400.476 174.7 399.951 174.14 399.531 174.126C396.941 174.056 394.947 173.587 393.547 172.719C392.665 172.173 392.224 171.424 392.224 170.473C392.224 169.297 392.924 168.709 394.324 168.709C394.842 168.709 395.919 169.115 397.557 169.927C399.209 170.725 400.567 171.124 401.63 171.124C403.758 171.124 405.753 170.62 407.614 169.612C408.524 169.122 408.979 168.52 408.979 167.806C408.979 166.742 408.139 166.21 406.459 166.21C405.942 166.21 404.269 166.588 401.441 167.344C399.776 167.792 398.754 168.016 398.376 168.016C396.15 168.016 394.317 166.966 392.875 164.867C392.175 163.859 391.825 162.774 391.825 161.612C391.811 159.247 393.428 157.651 396.675 156.825C398.005 156.489 399.258 156.321 400.434 156.321C401.777 156.321 403.681 156.65 406.145 157.308V153.739H389.432V151.219H411.1V153.739ZM432.999 153.739H427.267V157.875C427.924 158.029 428.4 158.218 428.694 158.442V160.919C427.029 160.346 425.293 160.059 423.487 160.059C422.186 160.059 420.926 160.276 419.708 160.709C418.084 161.283 417.265 162.102 417.251 163.166C417.223 164.286 418.812 164.846 422.018 164.846C422.088 164.846 422.542 164.825 423.382 164.783L424.642 164.72V166.651C422.738 166.707 421.549 166.756 421.073 166.798C417.727 167.092 416.055 168.058 416.055 169.696C416.055 170.606 416.636 171.319 417.797 171.837C418.707 172.243 419.687 172.446 420.737 172.446C425.286 172.446 428.967 170.431 431.781 166.399V171.711C429.373 173.237 426.525 174 423.235 174C419.638 174 416.531 173.167 413.913 171.501C412.639 170.69 412.002 169.759 412.002 168.709C412.002 167.687 412.45 166.798 413.346 166.042C413.892 165.581 414.795 165.049 416.055 164.447L414.669 163.649C413.843 163.173 413.43 162.536 413.43 161.738C413.43 160.003 414.739 158.757 417.356 158.001C419.344 157.427 421.577 157.14 424.054 157.14V153.739H410.596V151.219H432.999V153.739Z" fill="#005A29"/>
</svg>
