<svg xmlns="http://www.w3.org/2000/svg" width="1200" height="800" viewBox="0 0 1200 800">
  <!-- Background with gradient -->
  <rect width="100%" height="100%" fill="#5D4037"/>
  
  <!-- Food-themed pattern overlay -->
  <g fill="#F9A825" fill-opacity="0.05">
    <!-- Spoon and fork pattern -->
    <g transform="translate(100, 100) rotate(45)">
      <path d="M10,0 C20,20 20,40 10,60 L20,70 L15,75 L5,65 C-5,75 -20,75 -30,65 C-40,55 -40,40 -30,30 C-20,20 -5,20 5,30 L15,20 L20,25 L10,35 C20,40 20,20 10,0 Z"/>
    </g>
    
    <!-- Repeated pattern -->
    <g transform="translate(300, 200) rotate(135)">
      <path d="M10,0 C20,20 20,40 10,60 L20,70 L15,75 L5,65 C-5,75 -20,75 -30,65 C-40,55 -40,40 -30,30 C-20,20 -5,20 5,30 L15,20 L20,25 L10,35 C20,40 20,20 10,0 Z"/>
    </g>
    
    <g transform="translate(500, 300) rotate(225)">
      <path d="M10,0 C20,20 20,40 10,60 L20,70 L15,75 L5,65 C-5,75 -20,75 -30,65 C-40,55 -40,40 -30,30 C-20,20 -5,20 5,30 L15,20 L20,25 L10,35 C20,40 20,20 10,0 Z"/>
    </g>
    
    <g transform="translate(700, 400) rotate(315)">
      <path d="M10,0 C20,20 20,40 10,60 L20,70 L15,75 L5,65 C-5,75 -20,75 -30,65 C-40,55 -40,40 -30,30 C-20,20 -5,20 5,30 L15,20 L20,25 L10,35 C20,40 20,20 10,0 Z"/>
    </g>
    
    <g transform="translate(900, 500) rotate(45)">
      <path d="M10,0 C20,20 20,40 10,60 L20,70 L15,75 L5,65 C-5,75 -20,75 -30,65 C-40,55 -40,40 -30,30 C-20,20 -5,20 5,30 L15,20 L20,25 L10,35 C20,40 20,20 10,0 Z"/>
    </g>
    
    <!-- Sweets icons -->
    <g transform="translate(200, 150)">
      <circle cx="0" cy="0" r="30"/>
    </g>
    
    <g transform="translate(400, 250)">
      <rect x="-25" y="-25" width="50" height="50" rx="10"/>
    </g>
    
    <g transform="translate(600, 350)">
      <polygon points="0,-30 25,15 -25,15"/>
    </g>
    
    <g transform="translate(800, 450)">
      <ellipse cx="0" cy="0" rx="25" ry="35"/>
    </g>
    
    <!-- More pattern elements -->
    <g transform="translate(150, 600)">
      <path d="M-20,-20 L20,20 M-20,20 L20,-20" stroke="#F9A825" stroke-width="5" stroke-opacity="0.1"/>
    </g>
    
    <g transform="translate(350, 700)">
      <path d="M-20,-20 L20,20 M-20,20 L20,-20" stroke="#F9A825" stroke-width="5" stroke-opacity="0.1"/>
    </g>
    
    <g transform="translate(550, 100)">
      <path d="M-20,-20 L20,20 M-20,20 L20,-20" stroke="#F9A825" stroke-width="5" stroke-opacity="0.1"/>
    </g>
    
    <g transform="translate(750, 200)">
      <path d="M-20,-20 L20,20 M-20,20 L20,-20" stroke="#F9A825" stroke-width="5" stroke-opacity="0.1"/>
    </g>
    
    <g transform="translate(950, 300)">
      <path d="M-20,-20 L20,20 M-20,20 L20,-20" stroke="#F9A825" stroke-width="5" stroke-opacity="0.1"/>
    </g>
  </g>
  
  <!-- Decorative overlays with Indian motifs -->
  <g fill="none" stroke="#F9A825" stroke-width="2" stroke-opacity="0.07">
    <!-- Mandala-inspired patterns -->
    <circle cx="600" cy="400" r="300"/>
    <circle cx="600" cy="400" r="280"/>
    <circle cx="600" cy="400" r="260"/>
    
    <!-- Radial lines -->
    <g transform="translate(600, 400)">
      <line x1="0" y1="0" x2="240" y2="0" transform="rotate(0)"/>
      <line x1="0" y1="0" x2="240" y2="0" transform="rotate(30)"/>
      <line x1="0" y1="0" x2="240" y2="0" transform="rotate(60)"/>
      <line x1="0" y1="0" x2="240" y2="0" transform="rotate(90)"/>
      <line x1="0" y1="0" x2="240" y2="0" transform="rotate(120)"/>
      <line x1="0" y1="0" x2="240" y2="0" transform="rotate(150)"/>
    </g>
    
    <!-- Decorative elements on the mandala -->
    <g transform="translate(600, 400)">
      <path d="M260,0 C270,10 270,20 260,30 C250,40 230,40 220,30 C210,20 210,10 220,0 C230,-10 250,-10 260,0 Z" transform="rotate(0)"/>
      <path d="M260,0 C270,10 270,20 260,30 C250,40 230,40 220,30 C210,20 210,10 220,0 C230,-10 250,-10 260,0 Z" transform="rotate(60)"/>
      <path d="M260,0 C270,10 270,20 260,30 C250,40 230,40 220,30 C210,20 210,10 220,0 C230,-10 250,-10 260,0 Z" transform="rotate(120)"/>
      <path d="M260,0 C270,10 270,20 260,30 C250,40 230,40 220,30 C210,20 210,10 220,0 C230,-10 250,-10 260,0 Z" transform="rotate(180)"/>
      <path d="M260,0 C270,10 270,20 260,30 C250,40 230,40 220,30 C210,20 210,10 220,0 C230,-10 250,-10 260,0 Z" transform="rotate(240)"/>
      <path d="M260,0 C270,10 270,20 260,30 C250,40 230,40 220,30 C210,20 210,10 220,0 C230,-10 250,-10 260,0 Z" transform="rotate(300)"/>
    </g>
  </g>
</svg>